<svg width="96" height="48" viewBox="0 0 96 48" fill="none" xmlns="http://www.w3.org/2000/svg">
<path d="M48 27C54.0751 27 59 22.0751 59 16C59 9.92487 54.0751 5 48 5C41.9249 5 37 9.92487 37 16C37 22.0751 41.9249 27 48 27Z" stroke="black" stroke-width="1.5" stroke-miterlimit="10"/>
<path d="M48 10V17" stroke="black" stroke-width="1.5" stroke-linecap="round" stroke-linejoin="round"/>
<path d="M48 22C48.5523 22 49 21.5523 49 21C49 20.4477 48.5523 20 48 20C47.4477 20 47 20.4477 47 21C47 21.5523 47.4477 22 48 22Z" fill="black"/>
<path d="M10.3653 45V38H11.4253V45H10.3653ZM12.8057 45V40.04H13.7457L13.8357 40.74C13.9957 40.4867 14.2057 40.2867 14.4657 40.14C14.7324 39.9933 15.0391 39.92 15.3857 39.92C16.1724 39.92 16.7191 40.23 17.0257 40.85C17.2057 40.5633 17.4457 40.3367 17.7457 40.17C18.0524 40.0033 18.3824 39.92 18.7357 39.92C19.3557 39.92 19.8424 40.1067 20.1957 40.48C20.5491 40.8533 20.7257 41.41 20.7257 42.15V45H19.6657V42.26C19.6657 41.3 19.2991 40.82 18.5657 40.82C18.1924 40.82 17.8857 40.96 17.6457 41.24C17.4124 41.52 17.2957 41.92 17.2957 42.44V45H16.2357V42.26C16.2357 41.3 15.8657 40.82 15.1257 40.82C14.7591 40.82 14.4557 40.96 14.2157 41.24C13.9824 41.52 13.8657 41.92 13.8657 42.44V45H12.8057ZM23.6459 45.12C23.2259 45.12 22.8792 45.05 22.6059 44.91C22.3326 44.77 22.1292 44.5867 21.9959 44.36C21.8626 44.1267 21.7959 43.8733 21.7959 43.6C21.7959 43.12 21.9826 42.74 22.3559 42.46C22.7292 42.18 23.2626 42.04 23.9559 42.04H25.2559V41.95C25.2559 41.5633 25.1492 41.2733 24.9359 41.08C24.7292 40.8867 24.4592 40.79 24.1259 40.79C23.8326 40.79 23.5759 40.8633 23.3559 41.01C23.1426 41.15 23.0126 41.36 22.9659 41.64H21.9059C21.9392 41.28 22.0592 40.9733 22.2659 40.72C22.4792 40.46 22.7459 40.2633 23.0659 40.13C23.3926 39.99 23.7492 39.92 24.1359 39.92C24.8292 39.92 25.3659 40.1033 25.7459 40.47C26.1259 40.83 26.3159 41.3233 26.3159 41.95V45H25.3959L25.3059 44.15C25.1659 44.4233 24.9626 44.6533 24.6959 44.84C24.4292 45.0267 24.0792 45.12 23.6459 45.12ZM23.8559 44.26C24.1426 44.26 24.3826 44.1933 24.5759 44.06C24.7759 43.92 24.9292 43.7367 25.0359 43.51C25.1492 43.2833 25.2192 43.0333 25.2459 42.76H24.0659C23.6459 42.76 23.3459 42.8333 23.1659 42.98C22.9926 43.1267 22.9059 43.31 22.9059 43.53C22.9059 43.7567 22.9892 43.9367 23.1559 44.07C23.3292 44.1967 23.5626 44.26 23.8559 44.26ZM29.5818 43.48C29.3218 43.48 29.0818 43.45 28.8618 43.39L28.4318 43.81C28.5052 43.8567 28.5952 43.8967 28.7018 43.93C28.8085 43.9633 28.9585 43.9933 29.1518 44.02C29.3452 44.0467 29.6085 44.0733 29.9418 44.1C30.6018 44.16 31.0785 44.32 31.3718 44.58C31.6652 44.8333 31.8118 45.1733 31.8118 45.6C31.8118 45.8933 31.7318 46.17 31.5718 46.43C31.4185 46.6967 31.1752 46.91 30.8418 47.07C30.5152 47.2367 30.0952 47.32 29.5818 47.32C28.8885 47.32 28.3252 47.1867 27.8918 46.92C27.4652 46.66 27.2518 46.2633 27.2518 45.73C27.2518 45.5233 27.3052 45.3167 27.4118 45.11C27.5252 44.91 27.7018 44.72 27.9418 44.54C27.8018 44.48 27.6785 44.4167 27.5718 44.35C27.4718 44.2767 27.3818 44.2033 27.3018 44.13V43.89L28.1618 43.01C27.7752 42.6767 27.5818 42.24 27.5818 41.7C27.5818 41.3733 27.6585 41.0767 27.8118 40.81C27.9718 40.5367 28.2018 40.32 28.5018 40.16C28.8018 40 29.1618 39.92 29.5818 39.92C29.8618 39.92 30.1218 39.96 30.3618 40.04H32.2118V40.74L31.3318 40.79C31.4918 41.0633 31.5718 41.3667 31.5718 41.7C31.5718 42.0333 31.4918 42.3333 31.3318 42.6C31.1785 42.8667 30.9518 43.08 30.6518 43.24C30.3585 43.4 30.0018 43.48 29.5818 43.48ZM29.5818 42.65C29.8885 42.65 30.1352 42.57 30.3218 42.41C30.5152 42.2433 30.6118 42.01 30.6118 41.71C30.6118 41.4033 30.5152 41.17 30.3218 41.01C30.1352 40.85 29.8885 40.77 29.5818 40.77C29.2685 40.77 29.0152 40.85 28.8218 41.01C28.6352 41.17 28.5418 41.4033 28.5418 41.71C28.5418 42.01 28.6352 42.2433 28.8218 42.41C29.0152 42.57 29.2685 42.65 29.5818 42.65ZM28.2518 45.63C28.2518 45.9167 28.3785 46.13 28.6318 46.27C28.8852 46.4167 29.2018 46.49 29.5818 46.49C29.9485 46.49 30.2452 46.41 30.4718 46.25C30.6985 46.0967 30.8118 45.89 30.8118 45.63C30.8118 45.4367 30.7352 45.27 30.5818 45.13C30.4285 44.9967 30.1385 44.9133 29.7118 44.88C29.3918 44.86 29.1085 44.83 28.8618 44.79C28.6285 44.9167 28.4685 45.0533 28.3818 45.2C28.2952 45.3467 28.2518 45.49 28.2518 45.63ZM35.282 45.12C34.7953 45.12 34.362 45.0133 33.982 44.8C33.6087 44.58 33.3153 44.2767 33.102 43.89C32.8887 43.5033 32.782 43.0533 32.782 42.54C32.782 42.02 32.8853 41.5633 33.092 41.17C33.3053 40.7767 33.5987 40.47 33.972 40.25C34.352 40.03 34.792 39.92 35.292 39.92C35.7787 39.92 36.202 40.03 36.562 40.25C36.922 40.4633 37.202 40.75 37.402 41.11C37.602 41.47 37.702 41.8667 37.702 42.3C37.702 42.3667 37.6987 42.44 37.692 42.52C37.692 42.5933 37.6887 42.6767 37.682 42.77H33.822C33.8553 43.25 34.012 43.6167 34.292 43.87C34.5787 44.1167 34.9087 44.24 35.282 44.24C35.582 44.24 35.832 44.1733 36.032 44.04C36.2387 43.9 36.392 43.7133 36.492 43.48H37.552C37.4187 43.9467 37.152 44.3367 36.752 44.65C36.3587 44.9633 35.8687 45.12 35.282 45.12ZM35.282 40.79C34.9287 40.79 34.6153 40.8967 34.342 41.11C34.0687 41.3167 33.902 41.63 33.842 42.05H36.642C36.622 41.6633 36.4853 41.3567 36.232 41.13C35.9787 40.9033 35.662 40.79 35.282 40.79ZM41.3214 45V40.04H42.2614L42.3414 40.91C42.4947 40.6033 42.718 40.3633 43.0114 40.19C43.3114 40.01 43.6547 39.92 44.0414 39.92C44.6414 39.92 45.1114 40.1067 45.4514 40.48C45.798 40.8533 45.9714 41.41 45.9714 42.15V45H44.9214V42.26C44.9214 41.3 44.528 40.82 43.7414 40.82C43.348 40.82 43.0214 40.96 42.7614 41.24C42.508 41.52 42.3814 41.92 42.3814 42.44V45H41.3214ZM49.5398 45.12C49.0665 45.12 48.6398 45.0133 48.2598 44.8C47.8865 44.58 47.5898 44.2767 47.3698 43.89C47.1498 43.4967 47.0398 43.04 47.0398 42.52C47.0398 42 47.1498 41.5467 47.3698 41.16C47.5965 40.7667 47.8998 40.4633 48.2798 40.25C48.6598 40.03 49.0831 39.92 49.5498 39.92C50.0231 39.92 50.4465 40.03 50.8198 40.25C51.1998 40.4633 51.4998 40.7667 51.7198 41.16C51.9465 41.5467 52.0598 42 52.0598 42.52C52.0598 43.04 51.9465 43.4967 51.7198 43.89C51.4998 44.2767 51.1998 44.58 50.8198 44.8C50.4398 45.0133 50.0131 45.12 49.5398 45.12ZM49.5398 44.21C49.7931 44.21 50.0265 44.1467 50.2398 44.02C50.4598 43.8933 50.6365 43.7067 50.7698 43.46C50.9031 43.2067 50.9698 42.8933 50.9698 42.52C50.9698 42.1467 50.9031 41.8367 50.7698 41.59C50.6431 41.3367 50.4698 41.1467 50.2498 41.02C50.0365 40.8933 49.8031 40.83 49.5498 40.83C49.2965 40.83 49.0598 40.8933 48.8398 41.02C48.6265 41.1467 48.4531 41.3367 48.3198 41.59C48.1865 41.8367 48.1198 42.1467 48.1198 42.52C48.1198 42.8933 48.1865 43.2067 48.3198 43.46C48.4531 43.7067 48.6265 43.8933 48.8398 44.02C49.0531 44.1467 49.2865 44.21 49.5398 44.21ZM55.0908 45C54.6042 45 54.2175 44.8833 53.9308 44.65C53.6442 44.41 53.5008 43.9867 53.5008 43.38V40.93H52.6508V40.04H53.5008L53.6308 38.78H54.5608V40.04H55.9608V40.93H54.5608V43.38C54.5608 43.6533 54.6175 43.8433 54.7308 43.95C54.8508 44.05 55.0542 44.1 55.3408 44.1H55.9108V45H55.0908ZM59.8233 45V40.93H59.1133V40.04H59.8233V39.32C59.8233 38.78 59.9567 38.3933 60.2233 38.16C60.4967 37.92 60.88 37.8 61.3733 37.8H61.8933V38.7H61.5333C61.3 38.7 61.1333 38.75 61.0333 38.85C60.9333 38.9433 60.8833 39.1033 60.8833 39.33V40.04H62.0233V40.93H60.8833V45H59.8233ZM65.155 45.12C64.6817 45.12 64.255 45.0133 63.875 44.8C63.5017 44.58 63.205 44.2767 62.985 43.89C62.765 43.4967 62.655 43.04 62.655 42.52C62.655 42 62.765 41.5467 62.985 41.16C63.2117 40.7667 63.515 40.4633 63.895 40.25C64.275 40.03 64.6984 39.92 65.165 39.92C65.6384 39.92 66.0617 40.03 66.435 40.25C66.815 40.4633 67.115 40.7667 67.335 41.16C67.5617 41.5467 67.675 42 67.675 42.52C67.675 43.04 67.5617 43.4967 67.335 43.89C67.115 44.2767 66.815 44.58 66.435 44.8C66.055 45.0133 65.6284 45.12 65.155 45.12ZM65.155 44.21C65.4084 44.21 65.6417 44.1467 65.855 44.02C66.075 43.8933 66.2517 43.7067 66.385 43.46C66.5184 43.2067 66.585 42.8933 66.585 42.52C66.585 42.1467 66.5184 41.8367 66.385 41.59C66.2584 41.3367 66.085 41.1467 65.865 41.02C65.6517 40.8933 65.4184 40.83 65.165 40.83C64.9117 40.83 64.675 40.8933 64.455 41.02C64.2417 41.1467 64.0684 41.3367 63.935 41.59C63.8017 41.8367 63.735 42.1467 63.735 42.52C63.735 42.8933 63.8017 43.2067 63.935 43.46C64.0684 43.7067 64.2417 43.8933 64.455 44.02C64.6684 44.1467 64.9017 44.21 65.155 44.21ZM70.6514 45.12C70.0514 45.12 69.578 44.9333 69.2314 44.56C68.8914 44.1867 68.7214 43.63 68.7214 42.89V40.04H69.7814V42.78C69.7814 43.74 70.1747 44.22 70.9614 44.22C71.3547 44.22 71.678 44.08 71.9314 43.8C72.1847 43.52 72.3114 43.12 72.3114 42.6V40.04H73.3714V45H72.4314L72.3514 44.13C72.198 44.4367 71.9714 44.68 71.6714 44.86C71.378 45.0333 71.038 45.12 70.6514 45.12ZM74.7198 45V40.04H75.6598L75.7398 40.91C75.8931 40.6033 76.1165 40.3633 76.4098 40.19C76.7098 40.01 77.0531 39.92 77.4398 39.92C78.0398 39.92 78.5098 40.1067 78.8498 40.48C79.1965 40.8533 79.3698 41.41 79.3698 42.15V45H78.3198V42.26C78.3198 41.3 77.9265 40.82 77.1398 40.82C76.7465 40.82 76.4198 40.96 76.1598 41.24C75.9065 41.52 75.7798 41.92 75.7798 42.44V45H74.7198ZM82.8782 45.12C82.3982 45.12 81.9749 45.0067 81.6082 44.78C81.2416 44.5533 80.9549 44.2433 80.7482 43.85C80.5416 43.4567 80.4382 43.01 80.4382 42.51C80.4382 42.01 80.5416 41.5667 80.7482 41.18C80.9549 40.7867 81.2416 40.48 81.6082 40.26C81.9816 40.0333 82.4082 39.92 82.8882 39.92C83.2816 39.92 83.6249 39.9967 83.9182 40.15C84.2182 40.3033 84.4516 40.52 84.6182 40.8V37.8H85.6782V45H84.7282L84.6182 44.23C84.4582 44.4633 84.2382 44.67 83.9582 44.85C83.6782 45.03 83.3182 45.12 82.8782 45.12ZM83.0682 44.2C83.5216 44.2 83.8916 44.0433 84.1782 43.73C84.4716 43.4167 84.6182 43.0133 84.6182 42.52C84.6182 42.02 84.4716 41.6167 84.1782 41.31C83.8916 40.9967 83.5216 40.84 83.0682 40.84C82.6149 40.84 82.2416 40.9967 81.9482 41.31C81.6549 41.6167 81.5082 42.02 81.5082 42.52C81.5082 42.8467 81.5749 43.1367 81.7082 43.39C81.8416 43.6433 82.0249 43.8433 82.2582 43.99C82.4982 44.13 82.7682 44.2 83.0682 44.2Z" fill="black"/>
</svg>
